<svg width="32" height="32" viewBox="0 0 32 32" fill="none" xmlns="http://www.w3.org/2000/svg">
<rect width="32" height="32" rx="6" fill="url(#paint0_linear_366_6)"/>
<path d="M23.6298 12.6537C23.5548 12.5599 23.464 12.5783 23.4164 12.5975C23.3765 12.6136 23.2852 12.6653 23.2978 12.7947C23.313 12.9502 23.3215 13.1087 23.3232 13.2659C23.3299 13.9179 23.0684 14.5568 22.6055 15.0185C22.1457 15.4773 21.5408 15.7245 20.8968 15.7174C20.017 15.7061 19.2874 15.2473 18.7866 14.3904C18.3726 13.6819 18.5546 12.768 18.7473 11.8004C18.86 11.2341 18.9766 10.6484 18.9766 10.091C18.9766 5.75106 16.059 3.24719 14.3198 2.14094C14.2838 2.1181 14.2496 2.11007 14.2193 2.11007C14.1699 2.11007 14.1309 2.13133 14.1116 2.14436C14.0743 2.16964 14.0145 2.22726 14.0338 2.32926C14.6985 5.85936 12.7157 7.9825 10.6165 10.2303C8.45274 12.5472 6.00025 15.1733 6.00025 19.9096C6.00025 25.4128 10.4774 29.8899 15.9806 29.8899C20.5118 29.8899 24.5068 26.7309 25.6957 22.2076C26.5064 19.1235 25.6568 15.1948 23.6298 12.6537ZM16.2296 27.7596C14.8516 27.8225 13.541 27.3282 12.5401 26.3711C11.5498 25.4242 10.9818 24.1028 10.9818 22.7456C10.9818 20.1987 11.9556 18.329 14.5749 15.8468C14.6177 15.8062 14.6616 15.7933 14.6999 15.7933C14.7345 15.7933 14.7646 15.8039 14.7853 15.8138C14.8288 15.8348 14.9005 15.8868 14.8908 15.9992C14.7972 17.089 14.7988 17.9935 14.8956 18.6878C15.143 20.4612 16.4412 21.6527 18.1262 21.6527C18.9523 21.6527 19.7392 21.3419 20.3419 20.7773C20.3652 20.7549 20.3936 20.7386 20.4246 20.7298C20.4557 20.7209 20.4884 20.7198 20.52 20.7265C20.5596 20.735 20.6127 20.7593 20.6406 20.8265C20.8905 21.4299 21.0182 22.0704 21.0201 22.7301C21.0281 25.3846 18.8791 27.6409 16.2296 27.7596Z" fill="black"/>
<defs>
<linearGradient id="paint0_linear_366_6" x1="16" y1="-4.76837e-07" x2="32" y2="36" gradientUnits="userSpaceOnUse">
<stop stop-color="#E5AE40"/>
<stop offset="1" stop-color="#FF2F00"/>
</linearGradient>
</defs>
</svg>
