<svg width="1560" height="228" viewBox="0 0 1560 228" fill="none" xmlns="http://www.w3.org/2000/svg">
<path d="M51.2708 2.54392C86.0844 2.54392 103.175 21.9414 103.175 57.5565V86.4937C103.175 122.109 86.0844 141.506 51.2708 141.506H34.8135V225.138H0V2.54392H51.2708ZM51.2708 34.3431H34.8135V109.707H51.2708C62.3479 109.707 68.3611 104.619 68.3611 88.7197V55.3305C68.3611 39.4309 62.3479 34.3431 51.2708 34.3431Z" fill="white"/>
<path d="M222.755 225.138H187.308C185.409 219.414 184.143 215.916 184.143 197.791V162.812C184.143 142.142 177.181 134.51 161.356 134.51H149.33V225.138H114.516V2.54392H167.053C203.133 2.54392 218.64 19.3975 218.64 53.7406V71.2301C218.64 94.1255 211.361 109.071 195.853 116.385C213.26 123.699 218.957 140.552 218.957 163.766V198.109C218.957 208.92 219.273 216.87 222.755 225.138ZM166.104 34.3431H149.33V102.711H162.939C175.915 102.711 183.827 96.9874 183.827 79.1799V57.2385C183.827 41.3389 178.447 34.3431 166.104 34.3431Z" fill="white"/>
<path d="M267.488 53.7406V173.941C267.488 189.841 274.451 195.883 285.528 195.883C296.605 195.883 303.568 189.841 303.568 173.941V53.7406C303.568 37.841 296.605 31.7991 285.528 31.7991C274.451 31.7991 267.488 37.841 267.488 53.7406ZM232.675 171.715V55.9665C232.675 20.3514 251.347 0 285.528 0C319.708 0 338.381 20.3514 338.381 55.9665V171.715C338.381 207.331 319.708 227.682 285.528 227.682C251.347 227.682 232.675 207.331 232.675 171.715Z" fill="white"/>
<path d="M402.781 2.54392L428.417 160.586L452.153 2.54392H500.576V225.138H467.661V65.5063L443.608 225.138H410.693L384.741 67.7322V225.138H354.359V2.54392H402.781Z" fill="white"/>
<path d="M554.383 34.3431V96.3515H602.173V128.151H554.383V193.339H614.516V225.138H519.57V2.54392H614.516V34.3431H554.383Z" fill="white"/>
<path d="M619.632 34.3431V2.54392H727.237V34.3431H690.841V225.138H656.027V34.3431H619.632Z" fill="white"/>
<path d="M771.053 34.3431V96.3515H818.843V128.151H771.053V193.339H831.186V225.138H736.24V2.54392H831.186V34.3431H771.053Z" fill="white"/>
<path d="M879.027 225.138V151.364L835.035 2.54392H871.431L898.016 103.983L924.601 2.54392H957.832L913.841 151.364V225.138H879.027Z" fill="white"/>
<path d="M1056.5 2.54392L1082.13 160.586L1105.87 2.54392H1154.29V225.138H1121.38V65.5063L1097.33 225.138H1064.41L1038.46 67.7322V225.138H1008.08V2.54392H1056.5Z" fill="white"/>
<path d="M1171.71 2.54392H1206.52V174.259C1206.52 190.159 1213.48 195.883 1224.56 195.883C1235.64 195.883 1242.6 190.159 1242.6 174.259V2.54392H1275.51V172.033C1275.51 207.649 1257.79 228 1223.61 228C1189.43 228 1171.71 207.649 1171.71 172.033V2.54392Z" fill="white"/>
<path d="M1288.63 55.9665C1288.63 20.3514 1306.03 0 1339.9 0C1373.76 0 1391.17 20.3514 1391.17 55.9665V62.9623H1358.25V53.7406C1358.25 37.841 1351.92 31.7991 1340.85 31.7991C1329.77 31.7991 1323.44 37.841 1323.44 53.7406C1323.44 99.5314 1391.49 108.117 1391.49 171.715C1391.49 207.331 1373.76 227.682 1339.58 227.682C1305.4 227.682 1287.68 207.331 1287.68 171.715V158.042H1320.59V173.941C1320.59 189.841 1327.56 195.565 1338.63 195.565C1349.71 195.565 1356.67 189.841 1356.67 173.941C1356.67 128.151 1288.63 119.565 1288.63 55.9665Z" fill="white"/>
<path d="M1405.1 225.138V2.54392H1439.92V225.138H1405.1Z" fill="white"/>
<path d="M1527.09 142.142H1560V171.715C1560 207.331 1542.28 227.682 1508.1 227.682C1473.92 227.682 1456.19 207.331 1456.19 171.715V55.9665C1456.19 20.3514 1473.92 0 1508.1 0C1542.28 0 1560 20.3514 1560 55.9665V77.59H1527.09V53.7406C1527.09 37.841 1520.12 31.7991 1509.05 31.7991C1497.97 31.7991 1491.01 37.841 1491.01 53.7406V173.941C1491.01 189.841 1497.97 195.565 1509.05 195.565C1520.12 195.565 1527.09 189.841 1527.09 173.941V142.142Z" fill="white"/>
</svg>
