<svg width="818" height="815" viewBox="0 0 818 815" fill="none" xmlns="http://www.w3.org/2000/svg">
<g clip-path="url(#clip0_122_601)">
<path d="M721.395 110.161C718.331 106.323 714.617 107.077 712.671 107.86C711.04 108.522 707.304 110.634 707.821 115.928C708.442 122.285 708.79 128.765 708.857 135.193C709.134 161.858 698.438 187.981 679.512 206.865C660.706 225.627 635.971 235.735 609.635 235.443C573.66 234.983 543.822 216.219 523.346 181.179C506.414 152.204 513.856 114.834 521.735 75.2672C526.345 52.108 531.114 28.1589 531.114 5.36574C531.114 -172.109 411.803 -274.5 340.683 -319.738C339.212 -320.672 337.812 -321 336.572 -321C334.555 -321 332.958 -320.13 332.17 -319.598C330.644 -318.564 328.201 -316.208 328.986 -312.036C356.17 -167.681 275.089 -80.859 189.245 11.059C100.762 105.806 0.472748 213.195 0.472748 406.874C0.472748 631.916 183.557 815 408.599 815C593.891 815 757.259 685.816 805.876 500.848C839.028 374.728 804.287 214.074 721.395 110.161ZM418.781 727.886C362.429 730.455 308.838 710.244 267.904 671.106C227.41 632.384 204.184 578.347 204.184 522.847C204.184 418.697 244.006 342.239 351.114 240.736C352.867 239.075 354.661 238.549 356.226 238.549C357.643 238.549 358.873 238.981 359.718 239.387C361.5 240.246 364.428 242.372 364.033 246.969C360.204 291.532 360.27 328.521 364.229 356.912C374.346 429.432 427.434 478.157 496.337 478.157C530.12 478.157 562.298 465.444 586.946 442.358C587.897 441.443 589.058 440.776 590.327 440.413C591.596 440.051 592.935 440.005 594.226 440.279C595.848 440.63 598.02 441.624 599.158 444.368C609.377 469.043 614.6 495.235 614.68 522.213C615.006 630.765 527.126 723.031 418.781 727.886Z" fill="url(#paint0_linear_122_601)"/>
</g>
<defs>
<linearGradient id="paint0_linear_122_601" x1="409.397" y1="-321" x2="1093.49" y2="787.129" gradientUnits="userSpaceOnUse">
<stop stop-color="#E5AE40"/>
<stop offset="1" stop-color="#FF2F00"/>
</linearGradient>
<clipPath id="clip0_122_601">
<rect width="818" height="815" fill="white"/>
</clipPath>
</defs>
</svg>
