<svg width="73" height="94" viewBox="0 0 73 94" fill="none" xmlns="http://www.w3.org/2000/svg">
<path d="M55.178 26.9596C64.8697 39.0416 75.9542 53.841 72.2787 70.4195C71.3613 74.6548 69.5318 78.6337 66.9202 82.0733C64.3051 85.483 61.0014 88.2905 57.2289 90.3091C53.4564 92.3276 49.3017 93.5108 45.0413 93.78C45.0519 93.7735 45.0624 93.7669 45.073 93.7604C47.8001 92.0678 49.8262 89.4312 50.7735 86.3409C51.7244 83.2387 51.5227 79.8924 50.2064 76.9297C46.6663 69.1097 39.7409 63.401 36.491 55.405C33.2411 63.401 26.3157 69.1097 22.7756 76.9297C21.46 79.8855 21.2547 83.2244 22.1982 86.3221C23.1417 89.4197 25.1693 92.064 27.9019 93.7604C23.6756 93.47 19.558 92.2782 15.8203 90.2635C12.0826 88.2488 8.80949 85.4568 6.21654 82.0714C3.62736 78.679 1.80493 74.7545 0.877404 70.574C-2.15971 57.0648 3.10204 43.9682 10.2983 32.7836C10.6658 36.85 15.0841 50.8352 16.6704 54.5888C17.9677 48.0138 13.0511 40.7815 19.99 25.8238C27.9019 8.76823 36.2008 4.92663 48.4073 0C46.2214 8.79755 48.2139 18.1034 53.7851 25.2197C54.2494 25.7866 54.7137 26.3751 55.178 26.9596Z" fill="url(#paint0_linear_122_2119)"/>
<path d="M50.7735 86.3409C51.7244 83.2387 51.5227 79.8924 50.2064 76.9297C46.6663 69.1097 39.7409 63.401 36.491 55.405C33.2411 63.401 26.3157 69.1097 22.7756 76.9297C21.46 79.8855 21.2547 83.2244 22.1982 86.3221C23.1417 89.4197 25.1693 92.064 27.9019 93.7604C34.6692 94.0551 38.4368 94.1037 45.073 93.7604C47.8001 92.0678 49.8262 89.4312 50.7735 86.3409Z" fill="url(#paint1_linear_122_2119)"/>
<defs>
<linearGradient id="paint0_linear_122_2119" x1="36.5" y1="-1.40071e-06" x2="91.0942" y2="95.3947" gradientUnits="userSpaceOnUse">
<stop stop-color="#E5AE40"/>
<stop offset="1" stop-color="#FF2F00"/>
</linearGradient>
<linearGradient id="paint1_linear_122_2119" x1="36.5" y1="-1.40071e-06" x2="91.0942" y2="95.3947" gradientUnits="userSpaceOnUse">
<stop stop-color="#E5AE40"/>
<stop offset="1" stop-color="#FF2F00"/>
</linearGradient>
</defs>
</svg>
