<svg width="38" height="38" viewBox="0 0 38 38" fill="none" xmlns="http://www.w3.org/2000/svg">
<path d="M22.5174 38L22.3898 33.0052H19.2169C14.6299 33.0052 10.7331 31.4012 7.52645 28.1931C4.31982 24.9849 2.71576 21.0881 2.7143 16.5026C2.71283 11.9171 4.31688 8.02027 7.52645 4.81216C10.736 1.60405 14.6328 0 19.2169 0C21.5097 0 23.6572 0.429801 25.6595 1.2894C27.6604 2.14754 29.4082 3.32326 30.9029 4.81656C32.3977 6.30986 33.5734 8.05767 34.4301 10.06C35.2868 12.0623 35.7166 14.2098 35.7195 16.5026C35.7195 18.7455 35.3902 20.8996 34.7316 22.965C34.0714 25.029 33.1605 26.9807 31.9987 28.8202C30.8369 30.6596 29.4434 32.3539 27.8181 33.903C26.1927 35.452 24.4259 36.8169 22.5174 37.9978M19.2895 27.6606C19.7443 27.6606 20.1278 27.5043 20.4403 27.1919C20.7527 26.8794 20.909 26.4958 20.909 26.0411C20.909 25.5864 20.7527 25.2028 20.4403 24.8903C20.1278 24.5779 19.7443 24.4209 19.2895 24.4195C18.8348 24.418 18.4512 24.5749 18.1387 24.8903C17.8263 25.2057 17.6693 25.5893 17.6679 26.0411C17.6664 26.4929 17.8233 26.8765 18.1387 27.1919C18.4541 27.5073 18.8377 27.6635 19.2895 27.6606ZM18.328 21.2246H20.2753C20.331 20.3224 20.5041 19.6088 20.7945 19.0836C21.085 18.5585 21.7744 17.7517 22.8629 16.6632C23.4951 16.0325 23.9961 15.3878 24.3657 14.7291C24.7354 14.072 24.9202 13.3172 24.9202 12.465C24.9202 10.8778 24.3723 9.63092 23.2765 8.72438C22.1808 7.81637 20.8554 7.36236 19.3005 7.36236C17.9422 7.36236 16.7907 7.73422 15.846 8.47794C14.8998 9.22166 14.2067 10.1084 13.7666 11.1382L15.5775 11.8401C15.8738 11.1888 16.3066 10.5954 16.8757 10.06C17.4449 9.52457 18.2531 9.2576 19.3005 9.25906C20.5459 9.25906 21.4649 9.59718 22.0575 10.2734C22.6516 10.9511 22.9487 11.6904 22.9487 12.4914C22.9487 13.2278 22.758 13.8505 22.3766 14.3595C21.9952 14.8685 21.506 15.4222 20.909 16.0207C19.8528 16.9507 19.1582 17.7869 18.8252 18.5291C18.4923 19.2714 18.3265 20.1699 18.328 21.2246Z" fill="white"/>
</svg>
