<svg width="38" height="38" viewBox="0 0 38 38" fill="none" xmlns="http://www.w3.org/2000/svg">
<path d="M18.9077 13.8263C17.6378 13.8263 16.4486 14.3189 15.5482 15.2193C14.6521 16.1197 14.1552 17.3089 14.1552 18.5787C14.1552 19.8486 14.6521 21.0378 15.5482 21.9382C16.4486 22.8343 17.6378 23.3312 18.9077 23.3312C20.1775 23.3312 21.3667 22.8343 22.2671 21.9382C23.1632 21.0378 23.6601 19.8486 23.6601 18.5787C23.6601 17.3089 23.1632 16.1197 22.2671 15.2193C21.8273 14.7762 21.3039 14.4248 20.7272 14.1857C20.1505 13.9465 19.532 13.8244 18.9077 13.8263ZM36.4183 23.8281L33.6407 21.454C33.7724 20.6471 33.8403 19.8231 33.8403 19.0034C33.8403 18.1838 33.7724 17.3556 33.6407 16.5529L36.4183 14.1788C36.6281 13.9992 36.7783 13.7599 36.8488 13.4929C36.9194 13.2258 36.907 12.9436 36.8132 12.6838L36.775 12.5734C36.0106 10.4358 34.8652 8.45442 33.3944 6.72521L33.3179 6.63602C33.1393 6.42601 32.9013 6.27505 32.6352 6.20302C32.369 6.131 32.0874 6.14129 31.8272 6.23255L28.3786 7.45995C27.1045 6.41517 25.686 5.59125 24.1485 5.01789L23.4817 1.41215C23.4314 1.14051 23.2997 0.890618 23.104 0.695658C22.9082 0.500699 22.6578 0.369904 22.386 0.320653L22.2713 0.299417C20.0629 -0.0998058 17.7355 -0.0998058 15.527 0.299417L15.4123 0.320653C15.1405 0.369904 14.8901 0.500699 14.6944 0.695658C14.4987 0.890618 14.3669 1.14051 14.3166 1.41215L13.6456 5.03488C12.1227 5.6128 10.704 6.43474 9.44523 7.46844L5.97114 6.23255C5.71108 6.14057 5.42918 6.1299 5.16291 6.20197C4.89664 6.27404 4.6586 6.42543 4.48043 6.63602L4.40398 6.72521C2.93574 8.45627 1.79065 10.4372 1.02333 12.5734L0.985102 12.6838C0.793984 13.2147 0.951125 13.8093 1.38008 14.1788L4.19163 16.5784C4.05997 17.3768 3.99626 18.1923 3.99626 18.9992C3.99626 19.8146 4.05997 20.6301 4.19163 21.42L1.38857 23.8196C1.17875 23.9992 1.02858 24.2385 0.958022 24.5055C0.887468 24.7726 0.899876 25.0547 0.993596 25.3146L1.03182 25.425C1.80054 27.5613 2.9345 29.5361 4.41247 31.2732L4.48892 31.3624C4.66753 31.5724 4.90557 31.7233 5.17169 31.7954C5.4378 31.8674 5.71949 31.8571 5.97964 31.7658L9.45373 30.5299C10.7193 31.5705 12.1294 32.3944 13.6541 32.9635L14.3251 36.5862C14.3754 36.8579 14.5072 37.1078 14.7029 37.3027C14.8986 37.4977 15.149 37.6285 15.4208 37.6777L15.5355 37.699C17.7657 38.1003 20.0496 38.1003 22.2798 37.699L22.3945 37.6777C22.6663 37.6285 22.9167 37.4977 23.1124 37.3027C23.3082 37.1078 23.4399 36.8579 23.4902 36.5862L24.157 32.9805C25.6945 32.4029 27.113 31.5832 28.3871 30.5384L31.8357 31.7658C32.0958 31.8578 32.3777 31.8685 32.6439 31.7964C32.9102 31.7244 33.1482 31.573 33.3264 31.3624L33.4029 31.2732C34.8808 29.5276 36.0148 27.5613 36.7835 25.425L36.8217 25.3146C37.0044 24.7879 36.8472 24.1976 36.4183 23.8281ZM18.9077 26.0451C14.7838 26.0451 11.4413 22.7026 11.4413 18.5787C11.4413 14.4548 14.7838 11.1124 18.9077 11.1124C23.0316 11.1124 26.374 14.4548 26.374 18.5787C26.374 22.7026 23.0316 26.0451 18.9077 26.0451Z" fill="white"/>
</svg>
