<svg width="38" height="38" viewBox="0 0 38 38" fill="none" xmlns="http://www.w3.org/2000/svg">
<path d="M34.8148 2.00723C34.7584 1.66852 34.63 1.34585 34.4383 1.06097C34.2466 0.776087 33.996 0.535621 33.7035 0.355782C33.4109 0.175943 33.0833 0.0609118 32.7425 0.0184426C32.4018 -0.0240265 32.0559 0.00705421 31.7282 0.109589L14.9136 5.36294C14.4247 5.51557 13.9973 5.82049 13.694 6.23318C13.3906 6.64587 13.2271 7.14473 13.2273 7.65692V27.1906C12.1451 26.379 10.8205 25.9565 9.4682 25.9916C8.11586 26.0268 6.81501 26.5175 5.77641 27.3843C4.7378 28.2511 4.02229 29.4432 3.7458 30.7674C3.4693 32.0916 3.64803 33.4704 4.25301 34.6804C4.858 35.8904 5.8538 36.8606 7.07908 37.434C8.30436 38.0073 9.68734 38.1502 11.0039 37.8394C12.3205 37.5285 13.4936 36.7823 14.3331 35.7215C15.1727 34.6607 15.6294 33.3476 15.6294 31.9948V14.8632L32.444 9.60741V22.3865C31.3618 21.5748 30.0372 21.1523 28.6848 21.1875C27.3325 21.2226 26.0317 21.7133 24.993 22.5801C23.9544 23.4469 23.2389 24.639 22.9624 25.9632C22.6859 27.2875 22.8647 28.6663 23.4697 29.8762C24.0746 31.0862 25.0704 32.0565 26.2957 32.6298C27.521 33.2032 28.904 33.346 30.2206 33.0352C31.5372 32.7244 32.7103 31.9781 33.5498 30.9174C34.3893 29.8566 34.8461 28.5434 34.8461 27.1906V2.40117C34.8461 2.26826 34.8357 2.13694 34.8148 2.00723Z" fill="white"/>
</svg>
