<svg width="38" height="38" viewBox="0 0 38 38" fill="none" xmlns="http://www.w3.org/2000/svg">
<path d="M37.0806 8.78586C36.491 7.42068 35.6409 6.18357 34.5778 5.14378C33.5139 4.10089 32.2595 3.27211 30.8829 2.70253C29.4555 2.10956 27.9244 1.80604 26.3787 1.8096C24.2102 1.8096 22.0944 2.40342 20.2558 3.52508C19.8159 3.79339 19.3981 4.0881 19.0022 4.4092C18.6063 4.0881 18.1884 3.79339 17.7486 3.52508C15.9099 2.40342 13.7942 1.8096 11.6256 1.8096C10.0641 1.8096 8.55098 2.10871 7.12142 2.70253C5.74024 3.27435 4.49542 4.0969 3.42655 5.14378C2.36206 6.1824 1.51172 7.4198 0.923717 8.78586C0.312304 10.2066 0 11.7154 0 13.2681C0 14.7328 0.299108 16.2592 0.892926 17.8119C1.38997 19.1095 2.10256 20.4555 3.01308 21.8147C4.45583 23.9656 6.43963 26.2089 8.90287 28.483C12.9848 32.2527 17.0272 34.8567 17.1987 34.9622L18.2412 35.6308C18.7031 35.9255 19.2969 35.9255 19.7587 35.6308L20.8012 34.9622C20.9728 34.8523 25.0107 32.2527 29.0971 28.483C31.5603 26.2089 33.5441 23.9656 34.9869 21.8147C35.8974 20.4555 36.6144 19.1095 37.107 17.8119C37.7008 16.2592 38 14.7328 38 13.2681C38.0044 11.7154 37.692 10.2066 37.0806 8.78586Z" fill="white"/>
</svg>
