<svg width="30" height="38" viewBox="0 0 30 38" fill="none" xmlns="http://www.w3.org/2000/svg">
<path d="M22.5429 10.8986C26.5024 15.7828 31.0309 21.7655 29.5293 28.4675C29.1545 30.1796 28.4071 31.7881 27.3401 33.1786C26.2717 34.5569 24.922 35.6919 23.3807 36.5079C21.8395 37.3239 20.1421 37.8022 18.4016 37.911C18.4059 37.9084 18.4102 37.9058 18.4145 37.9031C19.5286 37.2189 20.3564 36.153 20.7434 34.9038C21.1319 33.6497 21.0495 32.2969 20.5117 31.0992C19.0654 27.938 16.2361 25.6302 14.9083 22.3978C13.5806 25.6302 10.7512 27.938 9.30493 31.0992C8.76742 32.2941 8.68356 33.6439 9.06902 34.8962C9.45448 36.1484 10.2829 37.2174 11.3993 37.9031C9.67261 37.7858 7.99038 37.304 6.46335 36.4895C4.93631 35.675 3.5991 34.5464 2.53976 33.1778C1.48195 31.8064 0.737402 30.2199 0.358462 28.5299C-0.882347 23.0688 1.26733 17.7744 4.20734 13.2529C4.3575 14.8968 6.16259 20.5504 6.81066 22.0678C7.34069 19.4098 5.33201 16.4862 8.16686 10.4394C11.3993 3.5446 14.7898 1.99162 19.7767 0C18.8837 3.55646 19.6977 7.3184 21.9738 10.1952C22.1635 10.4244 22.3532 10.6623 22.5429 10.8986Z" fill="white"/>
</svg>
