<svg width="38" height="38" viewBox="0 0 38 38" fill="none" xmlns="http://www.w3.org/2000/svg">
<path d="M11.02 23.1799V11.3999H3.8C1.71 11.3999 0 13.1099 0 15.1999V26.5999C0 28.6899 1.71 30.3999 3.8 30.3999H5.7V36.0999L11.4 30.3999H20.9C22.99 30.3999 24.7 28.6899 24.7 26.5999V23.1419C24.5751 23.1687 24.4477 23.1821 24.32 23.1818H11.02V23.1799ZM34.2 1.8999H17.1C15.01 1.8999 13.3 3.6099 13.3 5.6999V20.8999H26.6L32.3 26.5999V20.8999H34.2C36.29 20.8999 38 19.1918 38 17.0999V5.6999C38 3.6099 36.29 1.8999 34.2 1.8999Z" fill="white"/>
</svg>
